<mxfile host="Electron" modified="2025-04-17T03:56:28.755Z" agent="Mozilla/5.0 (Windows NT 10.0; Win64; x64) AppleWebKit/537.36 (KHTML, like Gecko) draw.io/24.1.0 Chrome/120.0.6099.109 Electron/28.1.0 Safari/537.36" etag="TFqys4CapF8_KS91X97n" version="24.1.0" type="device">
  <diagram name="Page-1" id="e7e014a7-5840-1c2e-5031-d8a46d1fe8dd">
    <mxGraphModel dx="1195" dy="697" grid="1" gridSize="10" guides="1" tooltips="1" connect="1" arrows="1" fold="1" page="1" pageScale="1" pageWidth="1169" pageHeight="826" background="none" math="0" shadow="0">
      <root>
        <mxCell id="0" />
        <mxCell id="1" parent="0" />
        <mxCell id="-z7OSwFVYx7XmVvSuAoB-19" value="Extends" style="endArrow=block;endSize=16;endFill=0;html=1;rounded=0;entryX=0.5;entryY=1;entryDx=0;entryDy=0;exitX=0.5;exitY=0;exitDx=0;exitDy=0;" parent="1" source="EmzUhdsncgB6JCz6lcP--1" edge="1">
          <mxGeometry width="160" relative="1" as="geometry">
            <mxPoint x="825" y="400" as="sourcePoint" />
            <mxPoint x="680" y="300" as="targetPoint" />
          </mxGeometry>
        </mxCell>
        <mxCell id="EmzUhdsncgB6JCz6lcP--1" value="ConcreteStateA" style="swimlane;fontStyle=1;align=center;verticalAlign=top;childLayout=stackLayout;horizontal=1;startSize=26;horizontalStack=0;resizeParent=1;resizeParentMax=0;resizeLast=0;collapsible=1;marginBottom=0;whiteSpace=wrap;html=1;fillColor=#fff2cc;strokeColor=#d6b656;" parent="1" vertex="1">
          <mxGeometry x="530" y="400" width="160" height="60" as="geometry" />
        </mxCell>
        <mxCell id="EmzUhdsncgB6JCz6lcP--2" value="" style="line;strokeWidth=1;fillColor=none;align=left;verticalAlign=middle;spacingTop=-1;spacingLeft=3;spacingRight=3;rotatable=0;labelPosition=right;points=[];portConstraint=eastwest;strokeColor=inherit;" parent="EmzUhdsncgB6JCz6lcP--1" vertex="1">
          <mxGeometry y="26" width="160" height="8" as="geometry" />
        </mxCell>
        <mxCell id="EmzUhdsncgB6JCz6lcP--3" value="handle()" style="text;strokeColor=none;fillColor=none;align=left;verticalAlign=top;spacingLeft=4;spacingRight=4;overflow=hidden;rotatable=0;points=[[0,0.5],[1,0.5]];portConstraint=eastwest;whiteSpace=wrap;html=1;" parent="EmzUhdsncgB6JCz6lcP--1" vertex="1">
          <mxGeometry y="34" width="160" height="26" as="geometry" />
        </mxCell>
        <mxCell id="00rLLGsdk2UZuWgH1494-1" value="State" style="swimlane;fontStyle=1;align=center;verticalAlign=top;childLayout=stackLayout;horizontal=1;startSize=26;horizontalStack=0;resizeParent=1;resizeParentMax=0;resizeLast=0;collapsible=1;marginBottom=0;whiteSpace=wrap;html=1;fillColor=#dae8fc;strokeColor=#6c8ebf;" parent="1" vertex="1">
          <mxGeometry x="610" y="240" width="160" height="60" as="geometry" />
        </mxCell>
        <mxCell id="00rLLGsdk2UZuWgH1494-2" value="" style="line;strokeWidth=1;fillColor=none;align=left;verticalAlign=middle;spacingTop=-1;spacingLeft=3;spacingRight=3;rotatable=0;labelPosition=right;points=[];portConstraint=eastwest;strokeColor=inherit;" parent="00rLLGsdk2UZuWgH1494-1" vertex="1">
          <mxGeometry y="26" width="160" height="8" as="geometry" />
        </mxCell>
        <mxCell id="00rLLGsdk2UZuWgH1494-3" value="handle()" style="text;strokeColor=#6c8ebf;fillColor=#dae8fc;align=left;verticalAlign=top;spacingLeft=4;spacingRight=4;overflow=hidden;rotatable=0;points=[[0,0.5],[1,0.5]];portConstraint=eastwest;whiteSpace=wrap;html=1;" parent="00rLLGsdk2UZuWgH1494-1" vertex="1">
          <mxGeometry y="34" width="160" height="26" as="geometry" />
        </mxCell>
        <mxCell id="00rLLGsdk2UZuWgH1494-4" value="Extends" style="endArrow=block;endSize=16;endFill=0;html=1;rounded=0;entryX=0.631;entryY=1;entryDx=0;entryDy=0;exitX=0.5;exitY=0;exitDx=0;exitDy=0;entryPerimeter=0;" parent="1" source="00rLLGsdk2UZuWgH1494-5" target="00rLLGsdk2UZuWgH1494-3" edge="1">
          <mxGeometry width="160" relative="1" as="geometry">
            <mxPoint x="1015" y="400" as="sourcePoint" />
            <mxPoint x="870" y="300" as="targetPoint" />
          </mxGeometry>
        </mxCell>
        <mxCell id="00rLLGsdk2UZuWgH1494-5" value="ConcreteStateB" style="swimlane;fontStyle=1;align=center;verticalAlign=top;childLayout=stackLayout;horizontal=1;startSize=26;horizontalStack=0;resizeParent=1;resizeParentMax=0;resizeLast=0;collapsible=1;marginBottom=0;whiteSpace=wrap;html=1;fillColor=#fff2cc;strokeColor=#d6b656;" parent="1" vertex="1">
          <mxGeometry x="720" y="400" width="160" height="60" as="geometry" />
        </mxCell>
        <mxCell id="00rLLGsdk2UZuWgH1494-6" value="" style="line;strokeWidth=1;fillColor=none;align=left;verticalAlign=middle;spacingTop=-1;spacingLeft=3;spacingRight=3;rotatable=0;labelPosition=right;points=[];portConstraint=eastwest;strokeColor=inherit;" parent="00rLLGsdk2UZuWgH1494-5" vertex="1">
          <mxGeometry y="26" width="160" height="8" as="geometry" />
        </mxCell>
        <mxCell id="00rLLGsdk2UZuWgH1494-7" value="handle()" style="text;strokeColor=none;fillColor=none;align=left;verticalAlign=top;spacingLeft=4;spacingRight=4;overflow=hidden;rotatable=0;points=[[0,0.5],[1,0.5]];portConstraint=eastwest;whiteSpace=wrap;html=1;" parent="00rLLGsdk2UZuWgH1494-5" vertex="1">
          <mxGeometry y="34" width="160" height="26" as="geometry" />
        </mxCell>
        <mxCell id="00rLLGsdk2UZuWgH1494-10" value="" style="endArrow=diamondThin;endFill=0;endSize=24;html=1;rounded=0;exitX=0;exitY=0.25;exitDx=0;exitDy=0;entryX=1;entryY=0.161;entryDx=0;entryDy=0;entryPerimeter=0;" parent="1" source="00rLLGsdk2UZuWgH1494-1" target="5hzl3FOju3GQAeY5eQVm-2" edge="1">
          <mxGeometry width="160" relative="1" as="geometry">
            <mxPoint x="540" y="440" as="sourcePoint" />
            <mxPoint x="360" y="271.4999999999999" as="targetPoint" />
          </mxGeometry>
        </mxCell>
        <mxCell id="5hzl3FOju3GQAeY5eQVm-2" value="Context" style="swimlane;fontStyle=1;align=center;verticalAlign=top;childLayout=stackLayout;horizontal=1;startSize=26;horizontalStack=0;resizeParent=1;resizeParentMax=0;resizeLast=0;collapsible=1;marginBottom=0;whiteSpace=wrap;html=1;strokeColor=inherit;strokeWidth=1;spacingLeft=3;spacingRight=3;spacingTop=-1;fontFamily=Helvetica;fontSize=12;fontColor=default;labelBackgroundColor=default;fillColor=none;" vertex="1" parent="1">
          <mxGeometry x="200" y="240" width="160" height="120" as="geometry" />
        </mxCell>
        <mxCell id="5hzl3FOju3GQAeY5eQVm-3" value="state" style="text;strokeColor=none;fillColor=none;align=left;verticalAlign=top;spacingLeft=4;spacingRight=4;overflow=hidden;rotatable=0;points=[[0,0.5],[1,0.5]];portConstraint=eastwest;whiteSpace=wrap;html=1;fontFamily=Helvetica;fontSize=12;fontColor=default;labelBackgroundColor=default;" vertex="1" parent="5hzl3FOju3GQAeY5eQVm-2">
          <mxGeometry y="26" width="160" height="26" as="geometry" />
        </mxCell>
        <mxCell id="5hzl3FOju3GQAeY5eQVm-4" value="" style="line;strokeWidth=1;fillColor=none;align=left;verticalAlign=middle;spacingTop=-1;spacingLeft=3;spacingRight=3;rotatable=0;labelPosition=right;points=[];portConstraint=eastwest;strokeColor=inherit;fontFamily=Helvetica;fontSize=12;fontColor=default;labelBackgroundColor=default;" vertex="1" parent="5hzl3FOju3GQAeY5eQVm-2">
          <mxGeometry y="52" width="160" height="8" as="geometry" />
        </mxCell>
        <mxCell id="5hzl3FOju3GQAeY5eQVm-5" value="request(){&lt;div&gt;&amp;nbsp;state.handle()&lt;/div&gt;&lt;div&gt;}&lt;/div&gt;" style="text;strokeColor=none;fillColor=none;align=left;verticalAlign=top;spacingLeft=4;spacingRight=4;overflow=hidden;rotatable=0;points=[[0,0.5],[1,0.5]];portConstraint=eastwest;whiteSpace=wrap;html=1;fontFamily=Helvetica;fontSize=12;fontColor=default;labelBackgroundColor=default;" vertex="1" parent="5hzl3FOju3GQAeY5eQVm-2">
          <mxGeometry y="60" width="160" height="60" as="geometry" />
        </mxCell>
      </root>
    </mxGraphModel>
  </diagram>
</mxfile>
